<svg width="195" height="43" viewBox="0 0 195 43" fill="none" xmlns="http://www.w3.org/2000/svg">
<path fill-rule="evenodd" clip-rule="evenodd" d="M10.8917 21.9042C11.6933 22.8842 13.7333 26.515 14.1667 28.3333H25.8333C26.2667 26.5167 28.3042 22.8858 29.1058 21.9067C30.4757 20.2356 31.3381 18.2069 31.5908 16.0608C31.8401 13.9189 31.4672 11.7506 30.5167 9.81501C29.5571 7.86508 28.0651 6.22664 26.2133 5.08918C24.3452 3.94016 22.1948 3.33231 20.0017 3.33334C17.8042 3.33334 15.6508 3.94168 13.79 5.08751C11.9377 6.22454 10.4452 7.8627 9.48499 9.81251C8.5339 11.7473 8.16012 13.9151 8.40832 16.0567C8.65749 18.1958 9.51832 20.2233 10.8917 21.9042V21.9042ZM20.8333 10L15.8333 17.5H19.1667V22.5L24.1667 15H20.8333V10Z" fill="url(#paint0_linear_22_167)"/>
<path d="M14.1666 30.8333C14.1666 30.6123 14.2544 30.4004 14.4107 30.2441C14.567 30.0878 14.7789 30 15 30H25C25.221 30 25.4329 30.0878 25.5892 30.2441C25.7455 30.4004 25.8333 30.6123 25.8333 30.8333C25.8333 31.0543 25.7455 31.2663 25.5892 31.4226C25.4329 31.5789 25.221 31.6667 25 31.6667H15C14.7789 31.6667 14.567 31.5789 14.4107 31.4226C14.2544 31.2663 14.1666 31.0543 14.1666 30.8333ZM25.8333 33.3333H14.1666V35C14.1666 35.442 14.3422 35.866 14.6548 36.1785C14.9673 36.4911 15.3913 36.6667 15.8333 36.6667H24.1666C24.6087 36.6667 25.0326 36.4911 25.3451 36.1785C25.6577 35.866 25.8333 35.442 25.8333 35V33.3333Z" fill="url(#paint1_linear_22_167)"/>
<path d="M60.459 29.8867V34H46.8359V29.8867H60.459ZM48.5586 8.40625V34H43.2852V8.40625H48.5586ZM58.6836 18.8301V22.8379H46.8359V18.8301H58.6836ZM60.4414 8.40625V12.5371H46.8359V8.40625H60.4414ZM79.9883 29.8867V34H67.1035V29.8867H79.9883ZM68.8086 8.40625V34H63.5352V8.40625H68.8086ZM100.186 29.8867V34H86.5625V29.8867H100.186ZM88.2852 8.40625V34H83.0117V8.40625H88.2852ZM98.4102 18.8301V22.8379H86.5625V18.8301H98.4102ZM100.168 8.40625V12.5371H86.5625V8.40625H100.168ZM118.098 25.5098H123.354C123.248 27.2324 122.773 28.7617 121.93 30.0977C121.098 31.4336 119.932 32.4766 118.432 33.2266C116.943 33.9766 115.15 34.3516 113.053 34.3516C111.412 34.3516 109.941 34.0703 108.641 33.5078C107.34 32.9336 106.227 32.1133 105.301 31.0469C104.387 29.9805 103.689 28.6914 103.209 27.1797C102.729 25.668 102.488 23.9746 102.488 22.0996V20.3242C102.488 18.4492 102.734 16.7559 103.227 15.2441C103.73 13.7207 104.445 12.4258 105.371 11.3594C106.309 10.293 107.428 9.47266 108.729 8.89844C110.029 8.32422 111.482 8.03711 113.088 8.03711C115.221 8.03711 117.02 8.42383 118.484 9.19727C119.961 9.9707 121.104 11.0371 121.912 12.3965C122.732 13.7559 123.225 15.3027 123.389 17.0371H118.115C118.057 16.0059 117.852 15.1328 117.5 14.418C117.148 13.6914 116.615 13.1465 115.9 12.7832C115.197 12.4082 114.26 12.2207 113.088 12.2207C112.209 12.2207 111.441 12.3848 110.785 12.7129C110.129 13.041 109.578 13.5391 109.133 14.207C108.688 14.875 108.354 15.7188 108.131 16.7383C107.92 17.7461 107.814 18.9297 107.814 20.2891V22.0996C107.814 23.4238 107.914 24.5898 108.113 25.5977C108.312 26.5938 108.617 27.4375 109.027 28.1289C109.449 28.8086 109.988 29.3242 110.645 29.6758C111.312 30.0156 112.115 30.1855 113.053 30.1855C114.154 30.1855 115.062 30.0098 115.777 29.6582C116.492 29.3066 117.037 28.7852 117.412 28.0938C117.799 27.4023 118.027 26.541 118.098 25.5098ZM137.732 8.40625V34H132.477V8.40625H137.732ZM145.607 8.40625V12.5371H124.725V8.40625H145.607ZM148.613 8.40625H158.158C160.115 8.40625 161.797 8.69922 163.203 9.28516C164.621 9.87109 165.711 10.7383 166.473 11.8867C167.234 13.0352 167.615 14.4473 167.615 16.123C167.615 17.4941 167.381 18.6719 166.912 19.6562C166.455 20.6289 165.805 21.4434 164.961 22.0996C164.129 22.7441 163.15 23.2598 162.025 23.6465L160.355 24.5254H152.059L152.023 20.4121H158.193C159.119 20.4121 159.887 20.248 160.496 19.9199C161.105 19.5918 161.562 19.1348 161.867 18.5488C162.184 17.9629 162.342 17.2832 162.342 16.5098C162.342 15.6895 162.189 14.9805 161.885 14.3828C161.58 13.7852 161.117 13.3281 160.496 13.0117C159.875 12.6953 159.096 12.5371 158.158 12.5371H153.887V34H148.613V8.40625ZM162.922 34L157.086 22.5918L162.658 22.5566L168.564 33.7539V34H162.922ZM192.699 20.6055V21.8184C192.699 23.7637 192.436 25.5098 191.908 27.0566C191.381 28.6035 190.637 29.9219 189.676 31.0117C188.715 32.0898 187.566 32.916 186.23 33.4902C184.906 34.0645 183.436 34.3516 181.818 34.3516C180.213 34.3516 178.742 34.0645 177.406 33.4902C176.082 32.916 174.934 32.0898 173.961 31.0117C172.988 29.9219 172.232 28.6035 171.693 27.0566C171.166 25.5098 170.902 23.7637 170.902 21.8184V20.6055C170.902 18.6484 171.166 16.9023 171.693 15.3672C172.221 13.8203 172.965 12.502 173.926 11.4121C174.898 10.3223 176.047 9.49023 177.371 8.91602C178.707 8.3418 180.178 8.05469 181.783 8.05469C183.4 8.05469 184.871 8.3418 186.195 8.91602C187.531 9.49023 188.68 10.3223 189.641 11.4121C190.613 12.502 191.363 13.8203 191.891 15.3672C192.43 16.9023 192.699 18.6484 192.699 20.6055ZM187.373 21.8184V20.5703C187.373 19.2109 187.25 18.0156 187.004 16.9844C186.758 15.9531 186.395 15.0859 185.914 14.3828C185.434 13.6797 184.848 13.1523 184.156 12.8008C183.465 12.4375 182.674 12.2559 181.783 12.2559C180.893 12.2559 180.102 12.4375 179.41 12.8008C178.73 13.1523 178.15 13.6797 177.67 14.3828C177.201 15.0859 176.844 15.9531 176.598 16.9844C176.352 18.0156 176.229 19.2109 176.229 20.5703V21.8184C176.229 23.166 176.352 24.3613 176.598 25.4043C176.844 26.4355 177.207 27.3086 177.688 28.0234C178.168 28.7266 178.754 29.2598 179.445 29.623C180.137 29.9863 180.928 30.168 181.818 30.168C182.709 30.168 183.5 29.9863 184.191 29.623C184.883 29.2598 185.463 28.7266 185.932 28.0234C186.4 27.3086 186.758 26.4355 187.004 25.4043C187.25 24.3613 187.373 23.166 187.373 21.8184Z" fill="url(#paint2_linear_22_167)"/>
<defs>
<linearGradient id="paint0_linear_22_167" x1="19.9999" y1="3.33334" x2="19.9999" y2="28.3333" gradientUnits="userSpaceOnUse">
<stop/>
<stop offset="1" stop-color="#002992"/>
</linearGradient>
<linearGradient id="paint1_linear_22_167" x1="20" y1="30" x2="20" y2="36.6667" gradientUnits="userSpaceOnUse">
<stop/>
<stop offset="1" stop-color="#002992"/>
</linearGradient>
<linearGradient id="paint2_linear_22_167" x1="118" y1="1" x2="118" y2="43" gradientUnits="userSpaceOnUse">
<stop/>
<stop offset="0.51794" stop-color="#002482"/>
<stop offset="1" stop-color="#002992"/>
</linearGradient>
</defs>
</svg>
