<svg width="185" height="42" viewBox="0 0 185 42" fill="none" xmlns="http://www.w3.org/2000/svg">
<path d="M50.459 28.8867V33H36.8359V28.8867H50.459ZM38.5586 7.40625V33H33.2852V7.40625H38.5586ZM48.6836 17.8301V21.8379H36.8359V17.8301H48.6836ZM50.4414 7.40625V11.5371H36.8359V7.40625H50.4414ZM69.9883 28.8867V33H57.1035V28.8867H69.9883ZM58.8086 7.40625V33H53.5352V7.40625H58.8086ZM90.1855 28.8867V33H76.5625V28.8867H90.1855ZM78.2852 7.40625V33H73.0117V7.40625H78.2852ZM88.4102 17.8301V21.8379H76.5625V17.8301H88.4102ZM90.168 7.40625V11.5371H76.5625V7.40625H90.168ZM108.098 24.5098H113.354C113.248 26.2324 112.773 27.7617 111.93 29.0977C111.098 30.4336 109.932 31.4766 108.432 32.2266C106.943 32.9766 105.15 33.3516 103.053 33.3516C101.412 33.3516 99.9414 33.0703 98.6406 32.5078C97.3398 31.9336 96.2266 31.1133 95.3008 30.0469C94.3867 28.9805 93.6895 27.6914 93.209 26.1797C92.7285 24.668 92.4883 22.9746 92.4883 21.0996V19.3242C92.4883 17.4492 92.7344 15.7559 93.2266 14.2441C93.7305 12.7207 94.4453 11.4258 95.3711 10.3594C96.3086 9.29297 97.4277 8.47266 98.7285 7.89844C100.029 7.32422 101.482 7.03711 103.088 7.03711C105.221 7.03711 107.02 7.42383 108.484 8.19727C109.961 8.9707 111.104 10.0371 111.912 11.3965C112.732 12.7559 113.225 14.3027 113.389 16.0371H108.115C108.057 15.0059 107.852 14.1328 107.5 13.418C107.148 12.6914 106.615 12.1465 105.9 11.7832C105.197 11.4082 104.26 11.2207 103.088 11.2207C102.209 11.2207 101.441 11.3848 100.785 11.7129C100.129 12.041 99.5781 12.5391 99.1328 13.207C98.6875 13.875 98.3535 14.7188 98.1309 15.7383C97.9199 16.7461 97.8145 17.9297 97.8145 19.2891V21.0996C97.8145 22.4238 97.9141 23.5898 98.1133 24.5977C98.3125 25.5938 98.6172 26.4375 99.0273 27.1289C99.4492 27.8086 99.9883 28.3242 100.645 28.6758C101.312 29.0156 102.115 29.1855 103.053 29.1855C104.154 29.1855 105.062 29.0098 105.777 28.6582C106.492 28.3066 107.037 27.7852 107.412 27.0938C107.799 26.4023 108.027 25.541 108.098 24.5098ZM127.732 7.40625V33H122.477V7.40625H127.732ZM135.607 7.40625V11.5371H114.725V7.40625H135.607ZM138.613 7.40625H148.158C150.115 7.40625 151.797 7.69922 153.203 8.28516C154.621 8.87109 155.711 9.73828 156.473 10.8867C157.234 12.0352 157.615 13.4473 157.615 15.123C157.615 16.4941 157.381 17.6719 156.912 18.6562C156.455 19.6289 155.805 20.4434 154.961 21.0996C154.129 21.7441 153.15 22.2598 152.025 22.6465L150.355 23.5254H142.059L142.023 19.4121H148.193C149.119 19.4121 149.887 19.248 150.496 18.9199C151.105 18.5918 151.562 18.1348 151.867 17.5488C152.184 16.9629 152.342 16.2832 152.342 15.5098C152.342 14.6895 152.189 13.9805 151.885 13.3828C151.58 12.7852 151.117 12.3281 150.496 12.0117C149.875 11.6953 149.096 11.5371 148.158 11.5371H143.887V33H138.613V7.40625ZM152.922 33L147.086 21.5918L152.658 21.5566L158.564 32.7539V33H152.922ZM182.699 19.6055V20.8184C182.699 22.7637 182.436 24.5098 181.908 26.0566C181.381 27.6035 180.637 28.9219 179.676 30.0117C178.715 31.0898 177.566 31.916 176.23 32.4902C174.906 33.0645 173.436 33.3516 171.818 33.3516C170.213 33.3516 168.742 33.0645 167.406 32.4902C166.082 31.916 164.934 31.0898 163.961 30.0117C162.988 28.9219 162.232 27.6035 161.693 26.0566C161.166 24.5098 160.902 22.7637 160.902 20.8184V19.6055C160.902 17.6484 161.166 15.9023 161.693 14.3672C162.221 12.8203 162.965 11.502 163.926 10.4121C164.898 9.32227 166.047 8.49023 167.371 7.91602C168.707 7.3418 170.178 7.05469 171.783 7.05469C173.4 7.05469 174.871 7.3418 176.195 7.91602C177.531 8.49023 178.68 9.32227 179.641 10.4121C180.613 11.502 181.363 12.8203 181.891 14.3672C182.43 15.9023 182.699 17.6484 182.699 19.6055ZM177.373 20.8184V19.5703C177.373 18.2109 177.25 17.0156 177.004 15.9844C176.758 14.9531 176.395 14.0859 175.914 13.3828C175.434 12.6797 174.848 12.1523 174.156 11.8008C173.465 11.4375 172.674 11.2559 171.783 11.2559C170.893 11.2559 170.102 11.4375 169.41 11.8008C168.73 12.1523 168.15 12.6797 167.67 13.3828C167.201 14.0859 166.844 14.9531 166.598 15.9844C166.352 17.0156 166.229 18.2109 166.229 19.5703V20.8184C166.229 22.166 166.352 23.3613 166.598 24.4043C166.844 25.4355 167.207 26.3086 167.688 27.0234C168.168 27.7266 168.754 28.2598 169.445 28.623C170.137 28.9863 170.928 29.168 171.818 29.168C172.709 29.168 173.5 28.9863 174.191 28.623C174.883 28.2598 175.463 27.7266 175.932 27.0234C176.4 26.3086 176.758 25.4355 177.004 24.4043C177.25 23.3613 177.373 22.166 177.373 20.8184Z" fill="white"/>
<path fill-rule="evenodd" clip-rule="evenodd" d="M2.89165 22.9041C3.69332 23.8841 5.73332 27.5149 6.16665 29.3333H17.8333C18.2667 27.5166 20.3042 23.8858 21.1058 22.9066C22.4757 21.2355 23.3381 19.2068 23.5908 17.0608C23.8401 14.9189 23.4672 12.7505 22.5167 10.8149C21.5571 8.86499 20.0651 7.22655 18.2133 6.08909C16.3452 4.94007 14.1948 4.33222 12.0017 4.33325C9.80415 4.33325 7.65082 4.94159 5.78999 6.08742C3.93772 7.22445 2.44517 8.86261 1.48499 10.8124C0.533903 12.7472 0.16012 14.915 0.408321 17.0566C0.657488 19.1958 1.51832 21.2233 2.89165 22.9041V22.9041ZM12.8333 10.9999L7.83332 18.4999H11.1667V23.4999L16.1667 15.9999H12.8333V10.9999Z" fill="white"/>
<path d="M6.16663 31.8333C6.16663 31.6123 6.25442 31.4004 6.4107 31.2441C6.56698 31.0878 6.77895 31 6.99996 31H17C17.221 31 17.4329 31.0878 17.5892 31.2441C17.7455 31.4004 17.8333 31.6123 17.8333 31.8333C17.8333 32.0543 17.7455 32.2663 17.5892 32.4226C17.4329 32.5789 17.221 32.6667 17 32.6667H6.99996C6.77895 32.6667 6.56698 32.5789 6.4107 32.4226C6.25442 32.2663 6.16663 32.0543 6.16663 31.8333ZM17.8333 34.3333H6.16663V36C6.16663 36.442 6.34222 36.866 6.65478 37.1785C6.96734 37.4911 7.39127 37.6667 7.83329 37.6667H16.1666C16.6087 37.6667 17.0326 37.4911 17.3451 37.1785C17.6577 36.866 17.8333 36.442 17.8333 36V34.3333Z" fill="white"/>
</svg>
